<svg xmlns="http://www.w3.org/2000/svg" width="23px" height="20px" viewBox="0 0 23 20"><path fill="none" d="M0 0h23v20H0z"/><g fill="#FFF"><path d="M6.335 6.51l-2.46 2.46 6.768 6.767L22.757 3.623l-2.459-2.46-9.655 9.654"/><path d="M18.261 17.391c0 .471-.398.87-.87.87H2.609c-.471 0-.87-.398-.87-.87V2.609c0-.471.398-.87.87-.87h14.703L18.69.361C18.305.137 17.865 0 17.391 0H2.609C1.174 0 0 1.174 0 2.609v14.783C0 18.826 1.174 20 2.609 20h14.783C18.826 20 20 18.826 20 17.391V8.844l-1.739 1.739v6.808z"/></g></svg>