<svg xmlns="http://www.w3.org/2000/svg" width="38" height="38" viewBox="0 0 39 39"><g fill="#ffffff"><path d="M23.916 19c0 2.728-2.211 4.938-4.938 4.938s-4.939-2.21-4.939-4.938c0-.394.051-.773.138-1.14h-.897v6.838h11.396V17.86h-.897c.086.367.137.746.137 1.14z"/><path d="M18.978 21.659c1.466 0 2.659-1.193 2.659-2.659s-1.193-2.659-2.659-2.659-2.659 1.193-2.659 2.659 1.192 2.659 2.659 2.659z"/><path d="M21.637 13.302h3.039v3.039h-3.039v-3.039z"/><path d="M19 3C10.164 3 3 10.164 3 19c0 8.837 7.164 16 16 16 8.837 0 16-7.163 16-16 0-8.836-7.163-16-16-16zm7.955 21.698c0 1.254-1.025 2.279-2.279 2.279H13.279C12.026 26.978 11 25.952 11 24.698V13.302c0-1.253 1.026-2.279 2.279-2.279h11.396c1.254 0 2.279 1.026 2.279 2.279v11.396h.001z"/></g><path fill="rgba(255, 255, 255, 0.7)" d="M19 0C8.507 0 0 8.507 0 19s8.507 19 19 19 19-8.507 19-19S29.493 0 19 0zm0 35c-8.837 0-16-7.163-16-16S10.163 3 19 3s16 7.163 16 16-7.163 16-16 16z"/></svg>