<svg xmlns="http://www.w3.org/2000/svg" width="38" height="38" viewBox="0 0 39 39"><g fill="#e9e9e9"><path d="M19.637 17.495c.402-.019.719-.082.951-.188.326-.145.54-.33.641-.559s.15-.496.15-.797c0-.232-.058-.465-.174-.697s-.322-.405-.617-.517c-.264-.1-.592-.155-.984-.165-.392-.009-.943-.014-1.652-.014h-.339v2.965h.565c.571 0 1.057-.009 1.459-.028z"/><path d="M21.118 20.084c-.282-.081-.672-.125-1.166-.132-.494-.006-1.012-.009-1.55-.009h-.79v3.493h.264c1.014 0 1.74-.003 2.18-.009.438-.007.843-.088 1.212-.245.377-.157.633-.364.774-.625s.214-.562.214-.9c0-.446-.088-.788-.261-1.03-.17-.241-.464-.423-.877-.543z"/><path d="M19 3C10.164 3 3 10.164 3 19c0 8.837 7.164 16 16 16 8.837 0 16-7.163 16-16 0-8.836-7.163-16-16-16zm6.602 20.531c-.273.533-.646.976-1.124 1.327-.552.415-1.161.71-1.823.886s-1.501.264-2.519.264h-6.121V11.987h5.443c1.13 0 1.957.038 2.48.113.524.076 1.045.242 1.561.5.533.27.929.632 1.189 1.087.26.455.392.975.392 1.558 0 .678-.179 1.278-.536 1.795-.358.518-.863.92-1.517 1.208v.075c.917.182 1.642.559 2.179 1.13s.807 1.325.807 2.261c0 .678-.138 1.283-.411 1.817z"/></g><path fill="rgba(255, 255, 255, 0.7)" d="M19 0C8.507 0 0 8.507 0 19s8.507 19 19 19 19-8.507 19-19S29.493 0 19 0zm0 35c-8.837 0-16-7.163-16-16S10.163 3 19 3s16 7.163 16 16-7.163 16-16 16z"/></svg>