<svg xmlns="http://www.w3.org/2000/svg" width="38" height="38" viewBox="0 0 39 39"><path fill="rgba(255, 255, 255, 0.8)" d="M19 3C10.164 3 3 10.163 3 19s7.164 16 16 16c8.837 0 16-7.164 16-16S27.837 3 19 3zm4.062 9.455h-3.021v3.444h3.021v3.445h-3.021v8.61H17.02v-8.61H14v-3.445h3.021v-3.444c0-1.902 1.353-3.445 3.021-3.445h3.021l-.001 3.445z"/><path fill="rgba(255, 255, 255, 0.5)" d="M19 0C8.507 0 0 8.507 0 19s8.507 19 19 19 19-8.507 19-19S29.493 0 19 0zm0 35c-8.837 0-16-7.163-16-16S10.163 3 19 3s16 7.163 16 16-7.163 16-16 16z"/></svg>