<svg xmlns="http://www.w3.org/2000/svg" viewBox="0 0 108 37"><g fill="#FFF"><path d="M44.581 26.968c.188-.009.374-.044.552-.105v1.339c-.377.143-.777.214-1.18.211-.701.066-1.367-.316-1.666-.956-.887.721-2 1.104-3.141 1.081-1.513 0-2.912-.832-2.912-2.563 0-2.142 1.98-2.802 3.712-2.802.73.01 1.457.094 2.17.249v-.297c0-1.043-.761-1.779-2.189-1.779-1.033.001-2.054.22-2.998.64v-1.711c1.027-.354 2.103-.542 3.188-.555 2.36 0 3.807 1.128 3.807 3.663v3.003c-.028.3.191.565.49.594.057.004.112.001.167-.012zm-6.433-1.137c.059.748.71 1.305 1.454 1.247.036-.003.071-.008.107-.013.897.014 1.763-.33 2.408-.956v-1.444c-.595-.127-1.2-.197-1.808-.211-1.047.009-2.161.335-2.161 1.387v-.01zM50.501 19.7c.898-.021 1.786.2 2.57.64v1.711c-.68-.46-1.483-.704-2.303-.698-1.514-.127-2.844 1.004-2.97 2.525s.999 2.857 2.513 2.984c.152.012.305.012.457 0 .85-.003 1.685-.224 2.427-.64v1.721c-.865.399-1.809.596-2.76.574-2.318.159-4.326-1.6-4.484-3.929-.009-.138-.012-.275-.008-.414-.077-2.396 1.794-4.402 4.179-4.48.126-.002.253-.001.379.006zM62.665 26.968c.188-.009.374-.044.552-.105v1.339c-.377.143-.777.214-1.18.211-.701.066-1.367-.316-1.666-.956-.887.721-2 1.104-3.141 1.081-1.513 0-2.912-.832-2.912-2.563 0-2.142 1.98-2.802 3.712-2.802.73.01 1.457.094 2.17.249v-.297c0-1.043-.761-1.779-2.189-1.779-1.033.001-2.054.22-2.998.64v-1.711c1.027-.354 2.103-.542 3.189-.555 2.36 0 3.807 1.128 3.807 3.663v3.003c-.028.3.191.565.49.594.056.004.111.001.166-.012zm-6.433-1.137c.059.748.71 1.305 1.454 1.247.036-.003.071-.008.107-.013.897.014 1.763-.33 2.408-.956v-1.444c-.595-.127-1.2-.197-1.808-.211-1.057.009-2.161.335-2.161 1.387v-.01zM72.974 16.095v12.202h-1.675v-1.329c-.752 1.003-1.939 1.58-3.188 1.549-2.423-.16-4.258-2.265-4.099-4.699.145-2.211 1.898-3.972 4.099-4.118 1.145-.039 2.246.442 2.998 1.31v-4.915h1.904-.039zm-4.531 5.241c-1.524.003-2.758 1.248-2.755 2.779.003 1.527 1.235 2.765 2.755 2.767 1.158.009 2.208-.686 2.656-1.76v-2.037c-.464-1.059-1.505-1.745-2.656-1.749zM78.988 19.7c3.312 0 4.454 2.688 3.921 5.107h-6.263c.209 1.502 1.666 2.123 3.188 2.123.912.003 1.813-.2 2.636-.593v1.606c-.944.405-1.963.601-2.989.574-2.551 0-4.759-1.463-4.759-4.409-.116-2.316 1.658-4.287 3.963-4.404.102-.004.203-.006.303-.004zm.086 1.549c-1.253-.097-2.346.845-2.442 2.103-.001.019-.003.038-.004.058h4.616c.112-1.082-.67-2.05-1.747-2.163-.14-.014-.283-.013-.423.002zM84.805 28.298V19.93h1.647v1.043c.709-.795 1.717-1.256 2.779-1.272 1.045-.066 2.042.448 2.598 1.339.751-.823 1.802-1.305 2.913-1.339 1.686-.066 3.106 1.253 3.172 2.948.005.139.001.28-.012.418v5.231h-1.904v-5.173c.09-.878-.545-1.662-1.418-1.752-.076-.008-.152-.01-.229-.007-.82.053-1.575.466-2.065 1.128v5.805h-1.904v-5.173c.09-.878-.545-1.662-1.418-1.752-.076-.008-.152-.01-.229-.007-.893.073-1.704.547-2.208 1.291v5.652h-1.904l.182-.012zM106.096 19.93H108l-3.902 9.497c-.904 2.18-2.084 2.869-3.35 2.869-.369-.005-.736-.053-1.095-.143v-1.587c.275.084.56.126.847.124.904 0 1.58-.64 2.065-1.913l.171-.421-3.959-8.435h2.027l2.855 6.312 2.437-6.303zM38.699 1.445v4.782c.71-.728 1.679-1.14 2.694-1.148 1.789-.108 3.327 1.263 3.434 3.06.007.118.008.236.002.354v5.173h-1.904V8.732c.107-.998-.612-1.894-1.605-2.001-.099-.01-.199-.013-.299-.008-.954.057-1.821.578-2.322 1.397v5.546h-1.904V1.445h1.904zM49.901 2.296V5.28h3.017v1.636h-3.017v3.825c0 1.1.504 1.463 1.58 1.463.578-.002 1.15-.115 1.685-.335v1.606c-.72.246-1.476.369-2.237.363-1.398.174-2.672-.824-2.845-2.229-.021-.175-.025-.35-.011-.526V6.894H46.55V5.258h1.494V2.733l1.857-.437zM55.299 13.647V5.279h1.647v1.043c.709-.795 1.717-1.256 2.779-1.272 1.045-.066 2.042.448 2.598 1.339.751-.823 1.802-1.305 2.912-1.339 1.686-.066 3.106 1.253 3.172 2.948.005.139.001.28-.012.418v5.231H66.49V8.474c.09-.878-.545-1.662-1.418-1.752-.076-.008-.152-.01-.229-.007-.82.053-1.575.466-2.065 1.128v5.805h-1.904V8.475c.09-.878-.545-1.662-1.418-1.752-.076-.008-.152-.01-.229-.007-.893.073-1.704.547-2.208 1.291v5.652h-1.904l.184-.012zM71.117 1.434h1.856v12.202h-1.856V1.434zM14.695 0h-.152L0 1.53v26.777L14.544 37l14.543-8.693V1.53L14.695 0zm12.487 27.207l-12.64 7.555-12.64-7.555V16.228l12.583 7.526v1.367l-8.633-5.164v1.32l8.671 5.231v1.396l-8.661-5.183v1.32l8.671 5.231 8.747-5.26V18.36l3.902-2.343v11.19zm0-12.584l-3.474 2.046-1.599.956-7.614-4.552v1.32l6.51 3.893h-.057l-.143.086-.952.546-5.368-3.213v1.32l4.236 2.534-.999.67-3.198-1.913v1.32l2.103 1.243-2.142 1.291-12.526-7.479 12.535-7.574 12.688 7.506zm0-1.33L14.477 5.767 1.912 13.284V3.243l12.64-1.329 12.64 1.329v10.051l-.01-.001z"/></g></svg>